<?xml version="1.0" encoding="UTF-8"?>
<svg id="Layer_2" data-name="Layer 2" xmlns="http://www.w3.org/2000/svg" viewBox="0 0 330.85 58.13">
  <defs>
    <style>
      .cls-1 {
        fill: #f7f7f0;
      }

      .cls-2 {
        fill: #ffff7b;
      }
    </style>
  </defs>
  <g id="Layer_3" data-name="Layer 3">
    <g>
      <path class="cls-1" d="M15.84,57.29H0V.84h15.84v56.45ZM24.35,57.29H3.96v-14.24h19.55c3.31,0,5.87-.34,7.67-1.01,1.8-.67,3.05-2.02,3.75-4.04.7-2.02,1.05-5,1.05-8.93s-.35-6.98-1.05-8.97c-.7-1.99-1.95-3.33-3.75-4-1.8-.67-4.35-1.01-7.67-1.01H3.96V.84h20.39c6.18,0,11.4,1.11,15.67,3.33,4.27,2.22,7.51,5.43,9.73,9.65,2.22,4.21,3.33,9.3,3.33,15.25s-1.11,11.04-3.33,15.25c-2.22,4.21-5.46,7.43-9.73,9.65-4.27,2.22-9.49,3.33-15.67,3.33Z"/>
      <path class="cls-1" d="M84.84,58.13c-5.95,0-11.05-1.19-15.29-3.58-4.24-2.39-7.49-5.76-9.73-10.11-2.25-4.35-3.37-9.48-3.37-15.38s1.12-11.02,3.37-15.38c2.25-4.35,5.49-7.72,9.73-10.11,4.24-2.39,9.34-3.58,15.29-3.58s11.04,1.19,15.25,3.58c4.21,2.39,7.44,5.76,9.69,10.11,2.25,4.35,3.37,9.48,3.37,15.38s-1.12,11.02-3.37,15.38c-2.25,4.35-5.48,7.72-9.69,10.11-4.21,2.39-9.3,3.58-15.25,3.58ZM84.84,42.72c2.92,0,5.19-.38,6.82-1.14,1.63-.76,2.78-2.13,3.45-4.13.67-1.99,1.01-4.79,1.01-8.38s-.34-6.46-1.01-8.43c-.67-1.97-1.83-3.33-3.45-4.09-1.63-.76-3.9-1.14-6.82-1.14s-5.21.38-6.87,1.14c-1.66.76-2.82,2.12-3.5,4.09-.67,1.97-1.01,4.77-1.01,8.43s.34,6.39,1.01,8.38c.67,1.99,1.84,3.37,3.5,4.13,1.66.76,3.95,1.14,6.87,1.14Z"/>
      <path class="cls-1" d="M164.54,15.08h-50.55V.84h50.55v14.24ZM147.19,57.29h-15.84V.84h15.84v56.45Z"/>
      <path class="cls-2" d="M174.7,41.79h-1.43c-4.82,0-8.72-3.9-8.72-8.72h0c0-4.82,3.9-8.72,8.72-8.72h1.43c4.82,0,8.72,3.9,8.72,8.72h0c0,4.82-3.9,8.72-8.72,8.72Z"/>
      <path class="cls-1" d="M215.68,57.29h-15.84V.84h15.84v56.45Z"/>
      <path class="cls-1" d="M241.97,57.29h-15.84V.84h15.84v56.45ZM269.85,15.08h-39.43V.84h39.43v14.24ZM268.59,38.5h-38.17v-14.15h38.17v14.15Z"/>
      <path class="cls-1" d="M308.44,38.67h-15.25L270.87.84h18.79l7.08,13.31,3.79,8.43h1.1l3.71-8.43,7.08-13.31h18.45l-22.41,37.83ZM308.78,57.29h-15.84v-28.39h15.84v28.39Z"/>
    </g>
  </g>
</svg>